<svg width="10.938" height="10.937" viewBox="0 0 10.937515 10.937484" fill="none" xmlns="http://www.w3.org/2000/svg"><path d="M9.338 1.6a5.476 5.476 0 0 0-7.736 0A5.438 5.438 0 0 0 0 5.469C0 6.93.569 8.304 1.602 9.338a5.452 5.452 0 0 0 3.868 1.6c1.4 0 2.802-.534 3.868-1.6a5.479 5.479 0 0 0 0-7.738zM8.74 8.738a4.627 4.627 0 0 1-6.538 0 4.594 4.594 0 0 1-1.354-3.27c0-1.234.481-2.395 1.354-3.269a4.628 4.628 0 0 1 6.538 0 4.63 4.63 0 0 1 0 6.54z" fill="#fff" style="fill:#fff"/><path d="M8.433 7.235 6.476 5.392 8.433 3.55a.627.627 0 0 0 0-.921.721.721 0 0 0-.977 0L5.497 4.47 3.54 2.627a.721.721 0 0 0-.978 0 .626.626 0 0 0 .001.922L4.52 5.392 2.562 7.235a.626.626 0 0 0 0 .922.71.71 0 0 0 .489.19.713.713 0 0 0 .488-.19l1.959-1.844 1.958 1.844a.71.71 0 0 0 .488.19.713.713 0 0 0 .49-.19.626.626 0 0 0-.001-.922Z" fill="#fff" style="fill:#fff;stroke-width:1"/></svg>
